<?xml version="1.0" encoding="UTF-8" standalone="no"?>
<!DOCTYPE svg PUBLIC "-//W3C//DTD SVG 1.0//EN" "http://www.w3.org/TR/2001/REC-SVG-20010904/DTD/svg10.dtd">
<!-- Generated by Microsoft Visio 11.0, SVG Export, v1.0 PACMAN flow overview.svg Page-1 -->
<svg xmlns="http://www.w3.org/2000/svg" xmlns:v="http://schemas.microsoft.com/visio/2003/SVGExtensions/" width="8.26772in"
		height="11.6929in" viewBox="0 0 595.276 841.89" xml:space="preserve" color-interpolation-filters="sRGB" class="st16">
	<v:documentProperties v:langID="1033" v:viewMarkup="false"/>

	<style type="text/css">
	<![CDATA[
		.st1 {fill:#b5cb85;stroke:#000000;stroke-linecap:round;stroke-linejoin:round;stroke-width:0.24}
		.st2 {fill:#000000;font-family:Arial;font-size:0.666664em;font-weight:bold}
		.st3 {font-size:1em}
		.st4 {fill:#729fdc;stroke:#000000;stroke-linecap:round;stroke-linejoin:round;stroke-width:0.24}
		.st5 {fill:#facca7;stroke:#000000;stroke-linecap:round;stroke-linejoin:round;stroke-width:0.24}
		.st6 {marker-end:url(#mrkr13-38);stroke:#000000;stroke-linecap:round;stroke-linejoin:round;stroke-width:0.24}
		.st7 {fill:#000000;fill-opacity:1;stroke:#000000;stroke-opacity:1;stroke-width:0.08695652173913}
		.st8 {fill:none;stroke:none;stroke-linecap:round;stroke-linejoin:round;stroke-width:0.72}
		.st9 {visibility:visible}
		.st10 {fill:#737373;stroke:#737373;stroke-linecap:round;stroke-linejoin:round;stroke-width:0.24}
		.st11 {fill:#bfbfbf;stroke:#000000;stroke-linecap:round;stroke-linejoin:round;stroke-width:0.24}
		.st12 {stroke:#000000;stroke-linecap:round;stroke-linejoin:round;stroke-width:0.24}
		.st13 {stroke:#000000;stroke-dasharray:3.6,2.16;stroke-linecap:round;stroke-linejoin:round;stroke-width:0.24}
		.st14 {marker-end:url(#mrkr13-38);stroke:#000000;stroke-linecap:round;stroke-linejoin:round;stroke-width:0.239976}
		.st15 {fill:#000000;font-family:Arial;font-size:1.00001em;font-weight:bold}
		.st16 {fill:none;fill-rule:evenodd;font-size:12;overflow:visible;stroke-linecap:square;stroke-miterlimit:3}
	]]>
	</style>

	<defs id="Markers">
		<g id="lend13">
			<path d="M 3 1 L -0 0 L 3 -1 L 3 1 " style="stroke:none"/>
		</g>
		<marker id="mrkr13-38" class="st7" v:arrowType="13" v:arrowSize="2" v:setback="34.5" refX="-34.5" orient="auto"
				markerUnits="strokeWidth">
			<use xlink:href="#lend13" transform="scale(-11.5,-11.5) "/>
		</marker>
	</defs>
	<g v:mID="0" v:index="1" v:groupContext="foregroundPage">
		<title>Page-1</title>
		<v:pageProperties v:drawingScale="0.0393701" v:pageScale="0.0393701" v:drawingUnits="24" v:shadowOffsetX="8.50394"
				v:shadowOffsetY="-8.50394"/>
		<v:layer v:name="Connector" v:index="0"/>
		<g id="group40-1" transform="translate(-9.92126,-21.2598)" v:mID="40" v:groupContext="group">
			<title>Sheet.40</title>
			<g id="shape1-2" v:mID="1" v:groupContext="shape" transform="translate(208.346,-693.071)">
				<title>Rectangle</title>
				<desc>Front-end Parser</desc>
				<v:userDefs>
					<v:ud v:nameU="visVersion" v:val="VT0(12):26"/>
				</v:userDefs>
				<v:textBlock v:margins="rect(4,4,4,4)" v:tabSpace="42.5197"/>
				<v:textRect cx="35.4331" cy="813.189" width="70.87" height="57.4016"/>
				<rect x="0" y="784.488" width="70.8661" height="57.4016" class="st1"/>
				<text x="16.77" y="810.79" class="st2" v:langID="2057"><v:paragraph v:horizAlign="1"/><v:tabList/>Front-end<v:newlineChar/><tspan
							x="22.98" dy="1.2em" class="st3">Parser</tspan></text>			</g>
			<g id="shape2-6" v:mID="2" v:groupContext="shape" transform="translate(208.346,-551.339)">
				<title>Rectangle.2</title>
				<desc>Mapper</desc>
				<v:userDefs>
					<v:ud v:nameU="visVersion" v:val="VT0(12):26"/>
				</v:userDefs>
				<v:textBlock v:margins="rect(4,4,4,4)" v:tabSpace="42.5197"/>
				<v:textRect cx="35.4331" cy="813.189" width="70.87" height="57.4016"/>
				<rect x="0" y="784.488" width="70.8661" height="57.4016" class="st1"/>
				<text x="21.21" y="815.59" class="st2" v:langID="2057"><v:paragraph v:horizAlign="1"/><v:tabList/>Mapper</text>			</g>
			<g id="shape3-9" v:mID="3" v:groupContext="shape" transform="translate(208.346,-395.433)">
				<title>Rectangle.3</title>
				<desc>Data Spec Generation</desc>
				<v:userDefs>
					<v:ud v:nameU="visVersion" v:val="VT0(12):26"/>
				</v:userDefs>
				<v:textBlock v:margins="rect(4,4,4,4)" v:tabSpace="42.5197"/>
				<v:textRect cx="35.4331" cy="813.189" width="70.87" height="57.4016"/>
				<rect x="0" y="784.488" width="70.8661" height="57.4016" class="st4"/>
				<text x="16.09" y="810.79" class="st2" v:langID="2057"><v:paragraph v:horizAlign="1"/><v:tabList/>Data Spec <tspan
							x="14.32" dy="1.2em" class="st3">Generation</tspan></text>			</g>
			<g id="shape4-13" v:mID="4" v:groupContext="shape" transform="translate(214.016,-770.315)">
				<title>Rounded rectangle</title>
				<desc>Model Specification</desc>
				<v:userDefs>
					<v:ud v:nameU="visVersion" v:val="VT0(12):26"/>
				</v:userDefs>
				<v:textBlock v:margins="rect(4,4,4,4)" v:tabSpace="42.5197"/>
				<v:textRect cx="29.7638" cy="819.567" width="59.53" height="44.6457"/>
				<path d="M45.35 841.89 A14.1733 14.1733 -180 0 0 59.53 827.72 L59.53 811.42 A14.1733 14.1733 -180 0 0 45.35 797.24
							 L14.17 797.24 A14.1733 14.1733 -180 0 0 -0 811.42 L0 827.72 A14.1733 14.1733 -180 0 0 14.17 841.89 L45.35
							 841.89 Z" class="st5"/>
				<text x="18.21" y="817.17" class="st2" v:langID="2057"><v:paragraph v:horizAlign="1"/><v:tabList/>Model <tspan
							x="4.87" dy="1.2em" class="st3">Specification</tspan></text>			</g>
			<g id="shape8-17" v:mID="8" v:groupContext="shape" transform="translate(214.016,-330.945)">
				<title>Rounded rectangle.8</title>
				<desc>Data Specification</desc>
				<v:userDefs>
					<v:ud v:nameU="visVersion" v:val="VT0(12):26"/>
				</v:userDefs>
				<v:textBlock v:margins="rect(4,4,4,4)" v:tabSpace="42.5197"/>
				<v:textRect cx="29.7638" cy="819.567" width="59.53" height="44.6457"/>
				<path d="M45.35 841.89 A14.1733 14.1733 -180 0 0 59.53 827.72 L59.53 811.42 A14.1733 14.1733 -180 0 0 45.35 797.24
							 L14.17 797.24 A14.1733 14.1733 -180 0 0 -0 811.42 L0 827.72 A14.1733 14.1733 -180 0 0 14.17 841.89 L45.35
							 841.89 Z" class="st5"/>
				<text x="21.09" y="817.17" class="st2" v:langID="2057"><v:paragraph v:horizAlign="1"/><v:tabList/>Data <tspan
							x="4.87" dy="1.2em" class="st3">Specification</tspan></text>			</g>
			<g id="shape10-21" v:mID="10" v:groupContext="shape" transform="translate(406.772,-530.787)">
				<title>Rectangle.10</title>
				<desc>Process described in this document</desc>
				<v:userDefs>
					<v:ud v:nameU="visVersion" v:val="VT0(12):26"/>
				</v:userDefs>
				<v:textBlock v:margins="rect(4,4,4,4)" v:tabSpace="42.5197"/>
				<v:textRect cx="35.4331" cy="813.189" width="70.87" height="57.4016"/>
				<rect x="0" y="784.488" width="70.8661" height="57.4016" class="st4"/>
				<text x="19.87" y="805.99" class="st2" v:langID="2057"><v:paragraph v:horizAlign="1"/><v:tabList/>Process <tspan
							x="11.87" dy="1.2em" class="st3">described in </tspan><tspan x="8.1" dy="1.2em" class="st3">this document</tspan></text>			</g>
			<g id="shape16-26" v:mID="16" v:groupContext="shape" transform="translate(406.772,-630)">
				<title>Rectangle.16</title>
				<desc>Process not covered here</desc>
				<v:userDefs>
					<v:ud v:nameU="visVersion" v:val="VT0(12):26"/>
				</v:userDefs>
				<v:textBlock v:margins="rect(4,4,4,4)" v:tabSpace="42.5197"/>
				<v:textRect cx="35.4331" cy="813.189" width="70.87" height="57.4016"/>
				<rect x="0" y="784.488" width="70.8661" height="57.4016" class="st1"/>
				<text x="12.54" y="810.79" class="st2" v:langID="2057"><v:paragraph v:horizAlign="1"/><v:tabList/>Process not <tspan
							x="10.53" dy="1.2em" class="st3">covered here</tspan></text>			</g>
			<g id="shape19-30" v:mID="19" v:groupContext="shape" transform="translate(357.165,-177.165)">
				<title>Rectangle.19</title>
				<desc>Host Inferface</desc>
				<v:userDefs>
					<v:ud v:nameU="visVersion" v:val="VT0(12):26"/>
				</v:userDefs>
				<v:textBlock v:margins="rect(4,4,4,4)" v:tabSpace="42.5197"/>
				<v:textRect cx="35.4331" cy="813.189" width="70.87" height="57.4016"/>
				<rect x="0" y="784.488" width="70.8661" height="57.4016" class="st1"/>
				<text x="8.76" y="815.59" class="st2" v:langID="2057"><v:paragraph v:horizAlign="1"/><v:tabList/>Host Inferface</text>			</g>
			<g id="shape5-33" v:mID="5" v:groupContext="shape" transform="translate(1085.67,71.5748) rotate(90)">
				<title>Sheet.5</title>
				<path d="M0 841.89 L11.56 841.89" class="st6"/>
			</g>
			<g id="shape9-39" v:mID="9" v:groupContext="shape" transform="translate(1085.67,446.457) rotate(90)">
				<title>Sheet.9</title>
				<path d="M0 841.89 L11.56 841.89" class="st6"/>
			</g>
			<g id="shape13-44" v:mID="13" v:groupContext="shape" transform="translate(32.5984,-772.441)">
				<title>Sheet.13</title>
				<desc>Problem domain-specific specification</desc>
				<v:textBlock v:margins="rect(4,4,4,4)" v:tabSpace="42.5197"/>
				<v:textRect cx="87.874" cy="823.465" width="175.75" height="36.8504"/>
				<rect x="0" y="805.039" width="175.748" height="36.8504" class="st8"/>
				<text x="14.75" y="825.86" class="st2" v:langID="2057"><v:paragraph v:horizAlign="1"/><v:tabList/>Problem domain-specific specification</text>			</g>
			<g id="shape14-47" v:mID="14" v:groupContext="shape" transform="translate(208.346,-630.709)">
				<title>Rounded rectangle.14</title>
				<desc>Graph-based representation of model</desc>
				<v:userDefs>
					<v:ud v:nameU="visVersion" v:val="VT0(12):26"/>
				</v:userDefs>
				<v:textBlock v:margins="rect(4,4,4,4)" v:tabSpace="42.5197"/>
				<v:textRect cx="35.4331" cy="819.567" width="70.87" height="44.6457"/>
				<path d="M56.69 841.89 A14.1733 14.1733 -180 0 0 70.87 827.72 L70.87 811.42 A14.1733 14.1733 -180 0 0 56.69 797.24
							 L14.17 797.24 A14.1733 14.1733 -180 0 0 -0 811.42 L0 827.72 A14.1733 14.1733 -180 0 0 14.17 841.89 L56.69
							 841.89 Z" class="st5"/>
				<text x="10.76" y="812.37" class="st2" v:langID="2057"><v:paragraph v:horizAlign="1"/><v:tabList/>Graph-based <tspan
							x="7.65" dy="1.2em" class="st3">representation </tspan><tspan x="18.77" dy="1.2em" class="st3">of model</tspan></text>			</g>
			<g id="shape6-52" v:mID="6" v:groupContext="shape" transform="translate(1085.67,148.819) rotate(90)">
				<title>Sheet.6</title>
				<path d="M0 841.89 L9.44 841.89" class="st6"/>
			</g>
			<g id="shape20-57" v:mID="20" v:groupContext="shape" transform="translate(1085.67,211.181) rotate(90)">
				<title>Sheet.20</title>
				<path d="M0 841.89 L13.69 841.89" class="st6"/>
			</g>
			<g id="shape7-62" v:mID="7" v:groupContext="shape" transform="translate(208.346,-474.803)">
				<title>Rounded rectangle.7</title>
				<desc>DB of machine-mapped description of model</desc>
				<v:userDefs>
					<v:ud v:nameU="visVersion" v:val="VT0(12):26"/>
				</v:userDefs>
				<v:textBlock v:margins="rect(4,4,4,4)" v:tabSpace="42.5197"/>
				<v:textRect cx="35.4331" cy="813.543" width="70.87" height="56.6929"/>
				<path d="M56.69 841.89 A14.1733 14.1733 -180 0 0 70.87 827.72 L70.87 799.37 A14.1733 14.1733 -180 0 0 56.69 785.2
							 L14.17 785.2 A14.1733 14.1733 -180 0 0 0 799.37 L0 827.72 A14.1733 14.1733 -180 0 0 14.17 841.89 L56.69
							 841.89 Z" class="st5"/>
				<text x="6.1" y="801.54" class="st2" v:langID="2057"><v:paragraph v:horizAlign="1"/><v:tabList/>DB of machine-<tspan
							x="20.1" dy="1.2em" class="st3">mapped </tspan><tspan x="8.99" dy="1.2em" class="st3">description of </tspan><tspan
							x="23.65" dy="1.2em" class="st3">model</tspan></text>			</g>
			<g id="shape21-68" v:mID="21" v:groupContext="shape" transform="translate(1085.67,290.551) rotate(90)">
				<title>Sheet.21</title>
				<path d="M0 841.89 L11.56 841.89" class="st6"/>
			</g>
			<g id="shape22-73" v:mID="22" v:groupContext="shape" transform="translate(1085.67,367.087) rotate(90)">
				<title>Sheet.22</title>
				<path d="M0 841.89 L13.69 841.89" class="st6"/>
			</g>
			<g id="shape12-78" v:mID="12" v:groupContext="shape" transform="translate(413.858,-713.622)">
				<title>Rounded rectangle.12</title>
				<desc>Model Description</desc>
				<v:userDefs>
					<v:ud v:nameU="visVersion" v:val="VT0(12):26"/>
				</v:userDefs>
				<v:textBlock v:margins="rect(4,4,4,4)" v:tabSpace="42.5197"/>
				<v:textRect cx="29.7638" cy="819.567" width="59.53" height="44.6457"/>
				<path d="M45.35 841.89 A14.1733 14.1733 -180 0 0 59.53 827.72 L59.53 811.42 A14.1733 14.1733 -180 0 0 45.35 797.24
							 L14.17 797.24 A14.1733 14.1733 -180 0 0 -0 811.42 L0 827.72 A14.1733 14.1733 -180 0 0 14.17 841.89 L45.35
							 841.89 Z" class="st5"/>
				<text x="18.21" y="817.17" class="st2" v:langID="2057"><v:paragraph v:horizAlign="1"/><v:tabList/>Model <tspan
							x="7.76" dy="1.2em" class="st3">Description</tspan></text>			</g>
			<g id="group24-82" transform="translate(293.386,0)" v:mID="24" v:groupContext="group">
				<title>Sheet.24</title>
				<g id="shape15-83" v:mID="15" v:groupContext="shape">
					<title>Shadowed box</title>
					<desc>SpiNNaker Machine</desc>
					<v:userDefs>
						<v:ud v:nameU="visVersion" v:val="VT0(12):26"/>
					</v:userDefs>
					<v:textBlock v:margins="rect(4,4,4,4)" v:tabSpace="42.5197" v:verticalAlign="2"/>
					<v:textRect cx="94.9606" cy="763.937" width="189.93" height="155.906"/>
					<g id="shadow15-84" v:groupContext="shadow" v:shadowOffsetX="0" v:shadowOffsetY="0"
							transform="matrix(1,0,0,1,8.50394,8.50394)" class="st9">
						<rect x="0" y="685.984" width="189.921" height="155.906" class="st10"/>
					</g>
					<rect x="0" y="685.984" width="189.921" height="155.906" class="st11"/>
					<text x="57.62" y="835.49" class="st2" v:langID="2057"><v:paragraph v:horizAlign="1"/><v:tabList/>SpiNNaker Machine</text>				</g>
				<g id="shape11-88" v:mID="11" v:groupContext="shape" transform="translate(63.7795,-91.4446)">
					<title>Rectangle.11</title>
					<desc>SpiNNaker-based Spec Executor</desc>
					<v:userDefs>
						<v:ud v:nameU="visVersion" v:val="VT0(12):26"/>
					</v:userDefs>
					<v:textBlock v:margins="rect(4,4,4,4)" v:tabSpace="42.5197"/>
					<v:textRect cx="35.4331" cy="817.604" width="70.87" height="48.5706"/>
					<rect x="0" y="793.319" width="70.8661" height="48.5706" class="st1"/>
					<text x="13.87" y="810.4" class="st2" v:langID="2057"><v:paragraph v:horizAlign="1"/><v:tabList/>SpiNNaker-<tspan
								x="13.2" dy="1.2em" class="st3">based Spec </tspan><tspan x="18.32" dy="1.2em" class="st3">Executor</tspan></text>				</g>
				<g id="shape17-93" v:mID="17" v:groupContext="shape" transform="translate(63.7795,-19.1884)">
					<title>Rectangle.17</title>
					<desc>Execute Model/Application</desc>
					<v:userDefs>
						<v:ud v:nameU="visVersion" v:val="VT0(12):26"/>
					</v:userDefs>
					<v:textBlock v:margins="rect(4,4,4,4)" v:tabSpace="42.5197"/>
					<v:textRect cx="35.4331" cy="817.604" width="70.87" height="48.5706"/>
					<rect x="0" y="793.319" width="70.8661" height="48.5706" class="st1"/>
					<text x="20.09" y="810.4" class="st2" v:langID="2057"><v:paragraph v:horizAlign="1"/><v:tabList/>Execute<v:newlineChar/><tspan
								x="22.77" dy="1.2em" class="st3">Model</tspan>/<tspan x="13.66" dy="1.2em" class="st3">Application</tspan></text>				</g>
				<g id="shape18-98" v:mID="18" v:groupContext="shape" transform="translate(941.102,750.145) rotate(90)">
					<title>Sheet.18</title>
					<path d="M0 841.89 L15.71 841.89" class="st6"/>
				</g>
			</g>
			<g id="shape25-103" v:mID="25" v:groupContext="shape" transform="translate(1234.49,664.724) rotate(90)">
				<title>Sheet.25</title>
				<path d="M0 841.89 L28.87 841.89" class="st6"/>
			</g>
			<g id="shape26-108" v:mID="26" v:groupContext="shape" transform="translate(59.5276,-176.457)">
				<title>Rectangle.26</title>
				<desc>Host Inferface</desc>
				<v:userDefs>
					<v:ud v:nameU="visVersion" v:val="VT0(12):26"/>
				</v:userDefs>
				<v:textBlock v:margins="rect(4,4,4,4)" v:tabSpace="42.5197"/>
				<v:textRect cx="35.4331" cy="813.189" width="70.87" height="57.4016"/>
				<rect x="0" y="784.488" width="70.8661" height="57.4016" class="st1"/>
				<text x="8.76" y="815.59" class="st2" v:langID="2057"><v:paragraph v:horizAlign="1"/><v:tabList/>Host Inferface</text>			</g>
			<g id="shape30-111" v:mID="30" v:groupContext="shape" transform="translate(59.5276,-248.031)">
				<title>Rectangle.30</title>
				<desc>Host-based Spec Executor</desc>
				<v:userDefs>
					<v:ud v:nameU="visVersion" v:val="VT0(12):26"/>
				</v:userDefs>
				<v:textBlock v:margins="rect(4,4,4,4)" v:tabSpace="42.5197"/>
				<v:textRect cx="35.4331" cy="813.189" width="70.87" height="57.4016"/>
				<rect x="0" y="784.488" width="70.8661" height="57.4016" class="st4"/>
				<text x="13.65" y="810.79" class="st2" v:langID="2057"><v:paragraph v:horizAlign="1"/><v:tabList/>Host-based <tspan
							x="7.64" dy="1.2em" class="st3">Spec Executor</tspan></text>			</g>
			<g id="shape31-115" v:mID="31" v:groupContext="shape" transform="translate(936.85,593.858) rotate(90)">
				<title>Sheet.31</title>
				<path d="M0 841.89 L14.17 841.89" class="st12"/>
			</g>
			<g id="shape32-118" v:mID="32" v:groupContext="shape" transform="translate(1085.67,537.165) rotate(90)">
				<title>Sheet.32</title>
				<path d="M0 841.89 L297.64 841.89" class="st13"/>
			</g>
			<g id="shape27-121" v:mID="27" v:groupContext="shape">
				<title>Shadowed box</title>
				<desc>SpiNNaker Machine</desc>
				<v:userDefs>
					<v:ud v:nameU="visVersion" v:val="VT0(12):26"/>
				</v:userDefs>
				<v:textBlock v:margins="rect(4,4,4,4)" v:tabSpace="42.5197" v:verticalAlign="2"/>
				<v:textRect cx="94.9606" cy="763.937" width="189.93" height="155.906"/>
				<g id="shadow27-122" v:groupContext="shadow" v:shadowOffsetX="0" v:shadowOffsetY="0"
						transform="matrix(1,0,0,1,8.50394,8.50394)" class="st9">
					<rect x="0" y="685.984" width="189.921" height="155.906" class="st10"/>
				</g>
				<rect x="0" y="685.984" width="189.921" height="155.906" class="st11"/>
				<text x="57.62" y="835.49" class="st2" v:langID="2057"><v:paragraph v:horizAlign="1"/><v:tabList/>SpiNNaker Machine</text>			</g>
			<g id="shape29-126" v:mID="29" v:groupContext="shape" transform="translate(59.5276,-19.1339)">
				<title>Rectangle.17</title>
				<desc>Execute Model/Application</desc>
				<v:userDefs>
					<v:ud v:nameU="visVersion" v:val="VT0(12):26"/>
				</v:userDefs>
				<v:textBlock v:margins="rect(4,4,4,4)" v:tabSpace="42.5197"/>
				<v:textRect cx="35.4331" cy="813.189" width="70.87" height="57.4016"/>
				<rect x="0" y="784.488" width="70.8661" height="57.4016" class="st1"/>
				<text x="20.09" y="805.99" class="st2" v:langID="2057"><v:paragraph v:horizAlign="1"/><v:tabList/>Execute<v:newlineChar/><tspan
							x="22.77" dy="1.2em" class="st3">Model</tspan>/<tspan x="13.66" dy="1.2em" class="st3">Application</tspan></text>			</g>
			<g id="shape33-131" v:mID="33" v:groupContext="shape" transform="translate(936.85,665.433) rotate(90)">
				<title>Sheet.33</title>
				<path d="M0 841.89 L90.22 841.89" class="st6"/>
			</g>
			<g id="shape34-136" v:mID="34" v:groupContext="shape" transform="translate(151.654,-233.858)">
				<title>Sheet.34</title>
				<desc>Host-based Data Generation</desc>
				<v:textBlock v:margins="rect(4,4,4,4)" v:tabSpace="42.5197"/>
				<v:textRect cx="38.2677" cy="813.543" width="76.54" height="56.6929"/>
				<rect x="0" y="785.197" width="76.5354" height="56.6929" class="st8"/>
				<text x="16.49" y="811.14" class="st2" v:langID="2057"><v:paragraph v:horizAlign="1"/><v:tabList/>Host-based<v:newlineChar/><tspan
							x="7.37" dy="1.2em" class="st3">Data Generation</tspan></text>			</g>
			<g id="shape35-140" v:mID="35" v:groupContext="shape" transform="translate(253.701,-233.858)">
				<title>Sheet.35</title>
				<desc>SpiNNaker-based Data Generation</desc>
				<v:textBlock v:margins="rect(4,4,4,4)" v:tabSpace="42.5197"/>
				<v:textRect cx="40.3937" cy="813.543" width="80.79" height="56.6929"/>
				<rect x="0" y="785.197" width="80.7874" height="56.6929" class="st8"/>
				<text x="7.27" y="811.14" class="st2" v:langID="2057"><v:paragraph v:horizAlign="1"/><v:tabList/>SpiNNaker-based<v:newlineChar/><tspan
							x="9.5" dy="1.2em" class="st3">Data Generation</tspan></text>			</g>
			<g id="shape23-144" v:mID="23" v:groupContext="shape" v:layerMember="0" transform="translate(243.78,-330.945)">
				<title>Dynamic connector</title>
				<path d="M0 841.89 L0 852.52 L-148.82 852.52 L-148.82 859.12" class="st14"/>
			</g>
			<g id="shape28-149" v:mID="28" v:groupContext="shape" v:layerMember="0" transform="translate(243.78,-330.945)">
				<title>Dynamic connector.28</title>
				<path d="M0 841.89 L0 852.52 L148.82 852.52 L148.82 929.99" class="st14"/>
			</g>
			<g id="shape36-154" v:mID="36" v:groupContext="shape" transform="translate(32.5984,-636.378)">
				<title>Sheet.36</title>
				<desc>Common graph-centric specification</desc>
				<v:textBlock v:margins="rect(4,4,4,4)" v:tabSpace="42.5197"/>
				<v:textRect cx="87.874" cy="823.465" width="175.75" height="36.8504"/>
				<rect x="0" y="805.039" width="175.748" height="36.8504" class="st8"/>
				<text x="18.31" y="825.86" class="st2" v:langID="2057"><v:paragraph v:horizAlign="1"/><v:tabList/>Common graph-centric specification</text>			</g>
			<g id="shape37-157" v:mID="37" v:groupContext="shape" transform="translate(372.756,-766.772)">
				<title>Sheet.37</title>
				<desc>Key</desc>
				<v:textBlock v:margins="rect(4,4,4,4)" v:tabSpace="42.5197"/>
				<v:textRect cx="69.4488" cy="824.882" width="138.9" height="34.0157"/>
				<rect x="0" y="807.874" width="138.898" height="34.0157" class="st8"/>
				<text x="58.44" y="828.48" class="st15" v:langID="2057"><v:paragraph v:horizAlign="1"/><v:tabList/>Key</text>			</g>
			<g id="shape38-160" v:mID="38" v:groupContext="shape" transform="translate(87.874,-486.142)">
				<title>Sheet.38</title>
				<desc>PACMAN103 data structures (Python)</desc>
				<v:textBlock v:margins="rect(4,4,4,4)" v:tabSpace="42.5197"/>
				<v:textRect cx="49.6063" cy="824.882" width="99.22" height="34.0157"/>
				<rect x="0" y="807.874" width="99.2126" height="34.0157" class="st8"/>
				<text x="16.04" y="822.48" class="st2" v:langID="2057"><v:paragraph v:horizAlign="1"/><v:tabList/>PACMAN103 data <tspan
							x="12.71" dy="1.2em" class="st3">structures </tspan>(Python)</text>			</g>
			<g id="shape39-164" v:mID="39" v:groupContext="shape" transform="translate(80.7874,-341.575)">
				<title>Sheet.39</title>
				<desc>PACMAN103 data structures (Python) &#38; file output for down loa...</desc>
				<v:textBlock v:margins="rect(4,4,4,4)" v:tabSpace="42.5197"/>
				<v:textRect cx="56.6929" cy="824.882" width="113.39" height="34.0157"/>
				<rect x="0" y="807.874" width="113.386" height="34.0157" class="st8"/>
				<text x="23.13" y="812.88" class="st2" v:langID="2057"><v:paragraph v:horizAlign="1"/><v:tabList/>PACMAN103 data <tspan
							x="8.91" dy="1.2em" class="st3">structures </tspan>(Python) &#38; file <tspan x="12.04" dy="1.2em"
							class="st3">output for down load to </tspan><tspan x="36.91" dy="1.2em" class="st3">spiNNaker</tspan></text>			</g>
		</g>
	</g>
</svg>
